<?xml version="1.0" encoding="UTF-8" standalone="no"?>
<!-- Created with Inkscape (http://www.inkscape.org/) -->

<svg
   xmlns:dc="http://purl.org/dc/elements/1.1/"
   xmlns:cc="http://creativecommons.org/ns#"
   xmlns:rdf="http://www.w3.org/1999/02/22-rdf-syntax-ns#"
   xmlns:svg="http://www.w3.org/2000/svg"
   xmlns="http://www.w3.org/2000/svg"
   xmlns:sodipodi="http://sodipodi.sourceforge.net/DTD/sodipodi-0.dtd"
   xmlns:inkscape="http://www.inkscape.org/namespaces/inkscape"
   width="28.063404mm"
   height="21.582144mm"
   viewBox="0 0 28.063404 21.582144"
   version="1.1"
   id="svg8716"
   inkscape:version="0.92.2 2405546, 2018-03-11"
   sodipodi:docname="favicon.svg">
  <defs
     id="defs8710" />
  <sodipodi:namedview
     id="base"
     pagecolor="#ffffff"
     bordercolor="#666666"
     borderopacity="1.0"
     inkscape:pageopacity="0.0"
     inkscape:pageshadow="2"
     inkscape:zoom="1.4"
     inkscape:cx="219.82354"
     inkscape:cy="-21.422031"
     inkscape:document-units="mm"
     inkscape:current-layer="layer1"
     showgrid="false"
     fit-margin-top="0"
     fit-margin-left="0"
     fit-margin-right="0"
     fit-margin-bottom="0"
     inkscape:window-width="1366"
     inkscape:window-height="744"
     inkscape:window-x="0"
     inkscape:window-y="0"
     inkscape:window-maximized="1" />
  <metadata
     id="metadata8713">
    <rdf:RDF>
      <cc:Work
         rdf:about="">
        <dc:format>image/svg+xml</dc:format>
        <dc:type
           rdf:resource="http://purl.org/dc/dcmitype/StillImage" />
        <dc:title></dc:title>
      </cc:Work>
    </rdf:RDF>
  </metadata>
  <g
     inkscape:label="Layer 1"
     inkscape:groupmode="layer"
     id="layer1"
     transform="translate(-39.26294,-89.708496)">
    <g
       id="g8682"
       transform="translate(-77.934556,-110.33924)">
      <path
         inkscape:connector-curvature="0"
         id="path8666"
         transform="scale(0.26458333)"
         d="m 484.87305,756.08594 -41.41602,27.52734 -0.50586,7.82813 48.48828,46.21484 55.5586,-41.66797 -3.03125,-4.29297 -50.00196,38.13281 -0.50586,-10.60742 55.5586,-52.02148 z m 1.19922,4.64844 42.85546,8.21289 -46.07031,39.28711 -31.25,-23.21485 z m -13.96094,6.53906 c 0.96019,0.0202 0.61328,0.9375 0.61328,0.9375 l -8.77539,6.125 c 0,0 -1.80581,0.59346 -1.04688,-1.01367 l 8.71289,-5.99805 c 0.19532,-0.0391 0.35893,-0.0538 0.4961,-0.0508 z m 43.85351,18.44922 c 0.49103,0.003 0.93014,0.16302 1.26758,0.54687 1.25715,1.43002 -0.99499,3.90385 -2.41015,5.17774 -1.56696,1.41048 -4.57716,3.62632 -5.98243,2.05468 -1.32207,-1.47855 1.05287,-4.07233 2.54688,-5.37695 1.15489,-1.00851 3.10505,-2.41234 4.57812,-2.40234 z"
         style="fill:#ed8221;fill-opacity:1;stroke:none;stroke-width:0.99999994px;stroke-linecap:butt;stroke-linejoin:miter;stroke-opacity:1" />
      <path
         inkscape:connector-curvature="0"
         id="path8678"
         d="m 131.29948,217.53049 12.80394,-11.29203 0.33073,0.47247 -13.08743,11.29203 z"
         style="fill:#ed8221;fill-opacity:1;stroke:none;stroke-width:0.26458332px;stroke-linecap:butt;stroke-linejoin:miter;stroke-opacity:1" />
    </g>
  </g>
</svg>
