<?xml version="1.0" encoding="UTF-8" standalone="no"?>
<!-- Created with Inkscape (http://www.inkscape.org/) -->

<svg
   xmlns:dc="http://purl.org/dc/elements/1.1/"
   xmlns:cc="http://creativecommons.org/ns#"
   xmlns:rdf="http://www.w3.org/1999/02/22-rdf-syntax-ns#"
   xmlns:svg="http://www.w3.org/2000/svg"
   xmlns="http://www.w3.org/2000/svg"
   xmlns:sodipodi="http://sodipodi.sourceforge.net/DTD/sodipodi-0.dtd"
   xmlns:inkscape="http://www.inkscape.org/namespaces/inkscape"
   width="35.11047mm"
   height="28.837971mm"
   viewBox="0 0 35.11047 28.837971"
   version="1.1"
   id="svg8716"
   inkscape:version="0.92.2 2405546, 2018-03-11"
   sodipodi:docname="logo.svg">
  <defs
     id="defs8710" />
  <sodipodi:namedview
     id="base"
     pagecolor="#ffffff"
     bordercolor="#666666"
     borderopacity="1.0"
     inkscape:pageopacity="0.0"
     inkscape:pageshadow="2"
     inkscape:zoom="1.4"
     inkscape:cx="29.996051"
     inkscape:cy="6.5375019"
     inkscape:document-units="mm"
     inkscape:current-layer="layer1"
     showgrid="false"
     fit-margin-top="0"
     fit-margin-left="0"
     fit-margin-right="0"
     fit-margin-bottom="0"
     inkscape:window-width="1366"
     inkscape:window-height="744"
     inkscape:window-x="0"
     inkscape:window-y="0"
     inkscape:window-maximized="1" />
  <metadata
     id="metadata8713">
    <rdf:RDF>
      <cc:Work
         rdf:about="">
        <dc:format>image/svg+xml</dc:format>
        <dc:type
           rdf:resource="http://purl.org/dc/dcmitype/StillImage" />
        <dc:title />
      </cc:Work>
    </rdf:RDF>
  </metadata>
  <g
     inkscape:label="Layer 1"
     inkscape:groupmode="layer"
     id="layer1"
     transform="translate(-35.739408,-89.850296)">
    <g
       id="g8682"
       transform="translate(-77.934556,-110.19744)">
      <path
         inkscape:connector-curvature="0"
         id="path8666"
         transform="scale(0.26458333)"
         d="m 484.87305,756.08594 -41.41602,27.52734 -0.50586,7.82813 48.48828,46.21484 55.5586,-41.66797 -3.03125,-4.29297 -50.00196,38.13281 -0.50586,-10.60742 55.5586,-52.02148 z m 1.19922,4.64844 42.85546,8.21289 -46.07031,39.28711 -31.25,-23.21485 z m -13.96094,6.53906 c 0.96019,0.0202 0.61328,0.9375 0.61328,0.9375 l -8.77539,6.125 c 0,0 -1.80581,0.59346 -1.04688,-1.01367 l 8.71289,-5.99805 c 0.19532,-0.0391 0.35893,-0.0538 0.4961,-0.0508 z m 43.85351,18.44922 c 0.49103,0.003 0.93014,0.16302 1.26758,0.54687 1.25715,1.43002 -0.99499,3.90385 -2.41015,5.17774 -1.56696,1.41048 -4.57716,3.62632 -5.98243,2.05468 -1.32207,-1.47855 1.05287,-4.07233 2.54688,-5.37695 1.15489,-1.00851 3.10505,-2.41234 4.57812,-2.40234 z"
         style="fill:#ed8221;fill-opacity:1;stroke:none;stroke-width:0.99999994px;stroke-linecap:butt;stroke-linejoin:miter;stroke-opacity:1" />
      <path
         inkscape:connector-curvature="0"
         id="path8678"
         d="m 131.29948,217.53049 12.80394,-11.29203 0.33073,0.47247 -13.08743,11.29203 z"
         style="fill:#ed8221;fill-opacity:1;stroke:none;stroke-width:0.26458332px;stroke-linecap:butt;stroke-linejoin:miter;stroke-opacity:1" />
    </g>
    <g
       aria-label="PHONEBOOK"
       style="font-style:normal;font-weight:normal;font-size:6.58542347px;line-height:1.25;font-family:sans-serif;letter-spacing:0px;word-spacing:0px;fill:#1a1a1a;fill-opacity:1;stroke:none;stroke-width:0.16463558"
       id="text13224">
      <path
         d="m 36.687992,114.59167 v 1.40841 h 0.38908 q 0.466253,0 0.652754,-0.15756 0.189717,-0.15757 0.189717,-0.54665 0,-0.38908 -0.189717,-0.54664 -0.186501,-0.15756 -0.652754,-0.15756 z m -0.948584,-0.79745 h 1.302293 q 0.993602,0 1.427699,0.35371 0.437314,0.35371 0.437314,1.14794 0,0.79424 -0.437314,1.14795 -0.434097,0.35371 -1.427699,0.35371 h -0.353709 v 1.79749 h -0.948584 z"
         style="font-style:normal;font-variant:normal;font-weight:bold;font-stretch:normal;font-family:'DejaVu Sans Mono';-inkscape-font-specification:'DejaVu Sans Mono Bold';fill:#1a1a1a;stroke-width:0.16463558"
         id="path4750"
         inkscape:connector-curvature="0" />
      <path
         d="m 39.620563,113.79422 h 0.948584 v 1.82964 h 1.186534 v -1.82964 h 0.948584 v 4.8008 h -0.948584 v -2.13512 h -1.186534 v 2.13512 h -0.948584 z"
         style="font-style:normal;font-variant:normal;font-weight:bold;font-stretch:normal;font-family:'DejaVu Sans Mono';-inkscape-font-specification:'DejaVu Sans Mono Bold';fill:#1a1a1a;stroke-width:0.16463558"
         id="path4752"
         inkscape:connector-curvature="0" />
      <path
         d="m 45.12235,114.55952 q -0.363356,0 -0.530564,0.38908 -0.167208,0.38586 -0.167208,1.25084 0,0.86176 0.167208,1.25084 0.167208,0.38587 0.530564,0.38587 0.366572,0 0.53378,-0.38587 0.167208,-0.38908 0.167208,-1.25084 0,-0.86498 -0.167208,-1.25084 -0.167208,-0.38908 -0.53378,-0.38908 z m -1.684942,1.63992 q 0,-1.23155 0.424451,-1.8618 0.427667,-0.63024 1.260491,-0.63024 0.83604,0 1.260491,0.63024 0.427667,0.63025 0.427667,1.8618 0,1.22834 -0.427667,1.85858 -0.424451,0.63025 -1.260491,0.63025 -0.832824,0 -1.260491,-0.63025 -0.424451,-0.63024 -0.424451,-1.85858 z"
         style="font-style:normal;font-variant:normal;font-weight:bold;font-stretch:normal;font-family:'DejaVu Sans Mono';-inkscape-font-specification:'DejaVu Sans Mono Bold';fill:#1a1a1a;stroke-width:0.16463558"
         id="path4754"
         inkscape:connector-curvature="0" />
      <path
         d="m 47.485771,113.79422 h 1.019326 l 1.337664,3.48886 v -3.48886 h 0.83604 v 4.8008 h -1.012895 l -1.344095,-3.48886 v 3.48886 h -0.83604 z"
         style="font-style:normal;font-variant:normal;font-weight:bold;font-stretch:normal;font-family:'DejaVu Sans Mono';-inkscape-font-specification:'DejaVu Sans Mono Bold';fill:#1a1a1a;stroke-width:0.16463558"
         id="path4756"
         inkscape:connector-curvature="0" />
      <path
         d="m 54.595327,118.59502 h -2.990451 v -4.8008 h 2.990451 v 0.83604 H 52.55346 v 1.0354 h 1.848935 v 0.83604 H 52.55346 v 1.25728 h 2.041867 z"
         style="font-style:normal;font-variant:normal;font-weight:bold;font-stretch:normal;font-family:'DejaVu Sans Mono';-inkscape-font-specification:'DejaVu Sans Mono Bold';fill:#1a1a1a;stroke-width:0.16463558"
         id="path4758"
         inkscape:connector-curvature="0" />
      <path
         d="m 56.212743,116.30234 v 1.7589 h 0.768513 q 0.565935,0 0.807101,-0.19615 0.241165,-0.19936 0.241165,-0.65276 0,-0.46946 -0.254027,-0.68812 -0.254028,-0.22187 -0.794239,-0.22187 z m 0,-1.97434 v 1.44699 h 0.755651 q 0.469469,0 0.678479,-0.18007 0.212226,-0.18007 0.212226,-0.58201 0,-0.36336 -0.20901,-0.52414 -0.205795,-0.16077 -0.681695,-0.16077 z m -0.652755,-0.53378 h 1.421268 q 0.736359,0 1.135086,0.31834 0.398726,0.31833 0.398726,0.90035 0,0.44053 -0.212225,0.69455 -0.20901,0.25403 -0.630246,0.31834 0.472685,0.0707 0.739574,0.40516 0.270105,0.3312 0.270105,0.84569 0,0.65275 -0.427666,0.98717 -0.427667,0.3312 -1.273354,0.3312 h -1.421268 z"
         style="font-style:normal;font-variant:normal;font-weight:normal;font-stretch:normal;font-family:'DejaVu Sans Mono';-inkscape-font-specification:'DejaVu Sans Mono';fill:#1a1a1a"
         id="path4760"
         inkscape:connector-curvature="0" />
      <path
         d="m 61.897816,116.19944 q 0,-1.05791 -0.218657,-1.5113 -0.215441,-0.45339 -0.710634,-0.45339 -0.491978,0 -0.710634,0.45339 -0.215441,0.45339 -0.215441,1.5113 0,1.0547 0.215441,1.50809 0.218656,0.45339 0.710634,0.45339 0.495193,0 0.710634,-0.45018 0.218657,-0.45339 0.218657,-1.5113 z m 0.678478,0 q 0,1.25406 -0.398727,1.87144 -0.395511,0.61739 -1.209042,0.61739 -0.813531,0 -1.209043,-0.61417 -0.395511,-0.61417 -0.395511,-1.87466 0,-1.25728 0.395511,-1.87466 0.398727,-0.61738 1.209043,-0.61738 0.813531,0 1.209042,0.61738 0.398727,0.61738 0.398727,1.87466 z"
         style="font-style:normal;font-variant:normal;font-weight:normal;font-stretch:normal;font-family:'DejaVu Sans Mono';-inkscape-font-specification:'DejaVu Sans Mono';fill:#1a1a1a"
         id="path4762"
         inkscape:connector-curvature="0" />
      <path
         d="m 65.85936,116.19944 q 0,-1.05791 -0.218657,-1.5113 -0.215441,-0.45339 -0.710634,-0.45339 -0.491978,0 -0.710634,0.45339 -0.215441,0.45339 -0.215441,1.5113 0,1.0547 0.215441,1.50809 0.218656,0.45339 0.710634,0.45339 0.495193,0 0.710634,-0.45018 0.218657,-0.45339 0.218657,-1.5113 z m 0.678478,0 q 0,1.25406 -0.398727,1.87144 -0.395511,0.61739 -1.209042,0.61739 -0.813531,0 -1.209043,-0.61417 -0.395511,-0.61417 -0.395511,-1.87466 0,-1.25728 0.395511,-1.87466 0.398727,-0.61738 1.209043,-0.61738 0.813531,0 1.209042,0.61738 0.398727,0.61738 0.398727,1.87466 z"
         style="font-style:normal;font-variant:normal;font-weight:normal;font-stretch:normal;font-family:'DejaVu Sans Mono';-inkscape-font-specification:'DejaVu Sans Mono';fill:#1a1a1a"
         id="path4764"
         inkscape:connector-curvature="0" />
      <path
         d="m 67.35137,113.79422 h 0.652754 v 2.13511 l 2.029005,-2.13511 h 0.762083 l -1.868228,1.96148 1.922892,2.83932 h -0.784591 l -1.565968,-2.40523 -0.495193,0.52735 v 1.87788 H 67.35137 Z"
         style="font-style:normal;font-variant:normal;font-weight:normal;font-stretch:normal;font-family:'DejaVu Sans Mono';-inkscape-font-specification:'DejaVu Sans Mono';fill:#1a1a1a"
         id="path4766"
         inkscape:connector-curvature="0" />
    </g>
  </g>
</svg>
